<?xml version="1.0" encoding="UTF-8"?>
<svg id="Layer_2" data-name="Layer 2" xmlns="http://www.w3.org/2000/svg" viewBox="0 0 164.75 35.73">
  <defs>
    <style>
      .cls-1 {
        fill: #fff;
        stroke-width: 0px;
      }
    </style>
  </defs>
  <g id="Layer_1-2" data-name="Layer 1">
    <path class="cls-1" d="M16.43,15.84l-7.38-1.84c-2.82-.68-4.73-1.51-5.72-2.52-.5-.53-.85-1.19-1.03-1.9-.18-.71-.17-1.45.02-2.16.22-1.11.68-2.15,1.34-3.07.66-.92,1.5-1.68,2.48-2.25C8.29.7,11.64,0,16.18,0,18.55,0,20.36.05,21.59.15c1.23.1,2.26.22,3.08.37.53.05,1.04.24,1.48.53.38.27.45.72.21,1.35l-.43,2.26c0,.07-.03.13-.06.19-.03.06-.08.11-.13.15-.05.04-.11.07-.18.09-.07.02-.13.02-.2.01-.36,0-.73-.03-1.09-.08-.44-.05-1.01-.11-1.72-.18-.7-.07-1.6-.15-2.68-.22-1.08-.07-2.45-.11-4.11-.11-1.7-.06-3.41.11-5.06.52-.48.11-.92.35-1.27.7-.35.35-.58.8-.67,1.28-.2,1.11.71,1.89,2.74,2.33l7.65,1.81c2.57.6,4.37,1.43,5.39,2.49.51.55.87,1.22,1.06,1.94.19.73.19,1.49,0,2.21-.2,1.19-.66,2.33-1.36,3.32-.69.99-1.6,1.81-2.66,2.41-2.23,1.34-5.55,2.01-9.97,2.01-2.39,0-4.4-.07-6.02-.22-1.39-.11-2.78-.33-4.14-.65-.24-.03-.47-.1-.68-.23-.21-.12-.38-.29-.52-.5-.13-.2-.22-.43-.26-.67-.04-.24-.02-.48.05-.72l.52-2.41c0-.08.03-.15.07-.22.04-.07.09-.13.15-.18.06-.05.13-.08.21-.1.08-.02.16-.03.23-.02,1.09.1,2.17.32,3.22.66,2.42.52,4.9.74,7.38.65,1.81.09,3.63-.15,5.35-.73.47-.15.9-.41,1.25-.77.34-.36.59-.8.71-1.28.07-.29.04-.6-.09-.87-.13-.27-.34-.49-.61-.63-.65-.34-1.33-.62-2.03-.82Z"/>
    <path class="cls-1" d="M34.92,34.68c-.19.32-.46.58-.78.77-.32.18-.68.28-1.05.29h-4.57c-.69,0-.96-.3-.81-.88.12-.37.32-.71.57-1.01l7.76-10.8-5.88-17.09c-.81-2.23-1.31-3.65-1.51-4.28-.2-.63-.12-1.02.25-1.18.45-.18.94-.26,1.43-.25h3.16c.52-.04,1.04.06,1.51.3.33.23.56.57.67.96l5.16,15.74L51.82,1.33c.21-.33.5-.59.84-.78.34-.19.72-.29,1.11-.3h4c.69,0,.95.34.79,1.01-.15.32-.34.62-.57.88l-23.08,32.54Z"/>
    <path class="cls-1" d="M60.94,3.22c.05-.54.29-1.05.67-1.43.45-.35.98-.58,1.54-.66,1.41-.25,2.78-.46,4.11-.63,1.64-.19,3.29-.28,4.94-.26,2.18-.08,4.36.22,6.43.9,1.4.48,2.61,1.4,3.45,2.62.76,1.22,1.19,2.63,1.22,4.07.06,1.77-.05,3.54-.34,5.28-.28,2.17-.96,4.27-2.01,6.19-.83,1.48-1.98,2.76-3.35,3.76-1.29.91-2.75,1.54-4.29,1.85-1.58.32-3.19.49-4.81.48-1.3,0-2.42-.02-3.39-.06-.97-.04-1.71-.09-2.24-.14l-1.09,7.04c0,.34-.09.68-.23.99-.14.31-.35.59-.6.82-.25.23-.55.4-.88.52-.32.11-.67.15-1.01.13h-2.47c-.38,0-.54-.19-.48-.57l4.81-30.89ZM72.75,20.25c.95-.26,1.81-.75,2.53-1.43.66-.66,1.16-1.47,1.45-2.36.78-2.44,1.14-5,1.06-7.56-.02-.9-.34-1.78-.91-2.48-.59-.61-1.36-1.02-2.19-1.16-1.2-.22-2.41-.32-3.62-.3-1,0-1.87.03-2.62.1-.61.04-1.21.14-1.79.3-.2.07-.39.18-.55.32-.16.21-.26.46-.27.72l-2.17,13.89c.69.18,1.4.29,2.11.32,1.02.08,2.03.12,3.03.12,1.34.03,2.67-.13,3.96-.48Z"/>
    <path class="cls-1" d="M88.54,24.67c-1.17-.31-2.25-.91-3.13-1.75-.65-.65-1.06-1.49-1.17-2.4-.1-.88-.07-1.78.07-2.65.12-.96.44-1.87.95-2.69.51-.82,1.19-1.52,1.99-2.04,2.08-1.2,4.36-2,6.73-2.36,1.28-.2,2.38-.37,3.32-.52s1.71-.28,2.33-.41c.63-.12,1.13-.24,1.52-.33.33-.08.66-.18.99-.3.21-.07.41-.18.57-.33.15-.21.25-.45.27-.7.14-.47.14-.97,0-1.44-.14-.47-.42-.89-.8-1.2-.73-.52-2.15-.78-4.26-.78-2.1-.04-4.2.07-6.28.33-.94.17-1.89.28-2.84.33-.3,0-.42-.18-.35-.52l.3-2.18c0-.26.05-.52.16-.76.11-.24.27-.45.47-.62.42-.29.9-.48,1.41-.56.78-.1,1.84-.2,3.18-.3,1.34-.1,2.98-.15,4.92-.15,3.76,0,6.38.68,7.88,2.04,1.5,1.36,1.97,3.66,1.42,6.9l-2.25,13.3c-.07.55-.34,1.07-.75,1.45-.41.38-.94.61-1.5.64-1.5.26-3.01.43-4.52.52-1.64.1-3.26.15-4.87.15-1.94.06-3.88-.16-5.76-.67ZM102.1,13.42l-9.27,1.71c-1.81.35-2.84,1.26-3.09,2.75-.15.5-.11,1.04.13,1.5.24.47.64.82,1.13.99,1.42.48,2.92.69,4.43.63,1.01,0,2.07-.05,3.15-.15s1.87-.2,2.33-.3l1.19-7.13Z"/>
    <path class="cls-1" d="M111.3,34.99c-.23.01-.47-.03-.68-.13s-.4-.25-.54-.43c-.14-.19-.24-.4-.28-.63-.04-.23-.02-.47.05-.69l.42-2.21c.05-.38.24-.57.58-.57.55.05,1.49.17,2.83.36,2.07.23,4.16.32,6.25.28,1.2.02,2.4-.07,3.59-.28.81-.15,1.58-.5,2.22-1.02.58-.51,1.02-1.17,1.26-1.9.31-.93.53-1.88.66-2.85-.5.05-1.26.1-2.27.15-1.01.05-2.18.07-3.49.07-1.58,0-3.15-.14-4.7-.45-1.39-.26-2.69-.86-3.78-1.76-1.11-.97-1.89-2.26-2.26-3.68-.47-2.05-.49-4.18-.06-6.24.26-1.81.7-3.58,1.31-5.31.54-1.53,1.4-2.92,2.52-4.09,1.23-1.22,2.74-2.12,4.39-2.63,2.22-.67,4.53-.98,6.84-.92,1.59,0,3.18.08,4.76.26,1.41.18,2.78.4,4.11.68.25,0,.51.04.74.15.23.11.43.27.59.47.16.2.26.44.31.69.05.25.03.51-.04.75l-3.19,20.16c-.28,2-.79,3.96-1.52,5.84-.56,1.44-1.45,2.73-2.59,3.77-1.16.99-2.54,1.69-4.03,2.04-1.92.45-3.89.66-5.87.62-1.99,0-3.65-.05-4.96-.15-1.31-.1-2.36-.21-3.16-.36ZM128.47,19.86l2.17-13.86c.04-.17.02-.35-.07-.5s-.23-.27-.4-.31c-.59-.12-1.19-.2-1.79-.25-.76-.07-1.61-.1-2.54-.1-1.28-.02-2.56.08-3.83.28-.96.16-1.86.56-2.62,1.16-.76.67-1.34,1.52-1.67,2.48-.49,1.39-.84,2.84-1.03,4.3-.2,1.11-.3,2.24-.29,3.37,0,.81.24,1.6.7,2.27.53.64,1.26,1.09,2.07,1.28,1.25.3,2.54.43,3.83.4,1.08,0,2.16-.05,3.23-.15.76-.04,1.51-.17,2.25-.37Z"/>
    <path class="cls-1" d="M138.95,12.37c.73-4.69,2.46-7.9,5.19-9.63,2.83-1.76,6.12-2.66,9.45-2.59,3.1-.14,6.15.77,8.66,2.59,2.22,1.73,2.96,4.94,2.23,9.63-.26,1.77-.71,3.52-1.33,5.19-.58,1.55-1.48,2.96-2.64,4.13-1.24,1.21-2.73,2.14-4.36,2.73-2.09.72-4.29,1.05-6.49.99-2.11.08-4.22-.25-6.2-.99-1.4-.55-2.6-1.5-3.45-2.73-.79-1.24-1.24-2.66-1.31-4.13-.1-1.74-.01-3.48.26-5.19ZM158.87,12.37c.42-2.64.23-4.57-.56-5.77-.79-1.2-2.61-1.8-5.44-1.8s-4.87.6-6.04,1.8c-1.36,1.63-2.19,3.65-2.38,5.77-.51,3.37-.3,5.61.63,6.72.94,1.11,2.7,1.66,5.3,1.66,2.57,0,4.51-.55,5.79-1.66,1.29-1.11,2.19-3.35,2.7-6.72h0Z"/>
  </g>
</svg>